<svg width="157" height="44" viewBox="0 0 157 44" fill="none" xmlns="http://www.w3.org/2000/svg">
<path d="M10.246 16.5L11.828 6H3.6L0.162 15C0.0559999 15.32 0 15.652 0 16C0 18.208 2.3 20 5.142 20C7.762 20 9.928 18.472 10.246 16.5ZM18 20C20.84 20 23.142 18.208 23.142 16C23.142 15.918 23.136 15.836 23.132 15.758L22.114 6H13.886L12.866 15.75C12.862 15.832 12.858 15.914 12.858 16C12.858 18.208 15.16 20 18 20ZM28 22.092V30H8V22.104C7.124 22.42 6.16 22.6 5.142 22.6C4.752 22.6 4.374 22.554 4 22.502V35.2C4 36.74 5.258 38 6.796 38H29.2C30.74 38 32 36.738 32 35.2V22.504C31.6219 22.562 31.2404 22.5948 30.858 22.602C29.8828 22.601 28.9154 22.4284 28 22.092ZM35.84 15L32.398 6H24.172L25.752 16.484C26.06 18.464 28.226 20 30.858 20C33.698 20 36 18.208 36 16C36 15.652 35.944 15.32 35.84 15Z" fill="#79BCCF"/>
<path d="M70.196 35.36C68.252 35.36 66.368 35.084 64.544 34.532C62.744 33.98 61.316 33.248 60.26 32.336L61.88 28.7C62.912 29.516 64.172 30.188 65.66 30.716C67.172 31.22 68.684 31.472 70.196 31.472C72.068 31.472 73.46 31.172 74.372 30.572C75.308 29.972 75.776 29.18 75.776 28.196C75.776 27.476 75.512 26.888 74.984 26.432C74.48 25.952 73.832 25.58 73.04 25.316C72.248 25.052 71.168 24.752 69.8 24.416C67.88 23.96 66.32 23.504 65.12 23.048C63.944 22.592 62.924 21.884 62.06 20.924C61.22 19.94 60.8 18.62 60.8 16.964C60.8 15.572 61.172 14.312 61.916 13.184C62.684 12.032 63.824 11.12 65.336 10.448C66.872 9.776 68.744 9.44 70.952 9.44C72.488 9.44 74 9.632 75.488 10.016C76.976 10.4 78.26 10.952 79.34 11.672L77.864 15.308C76.76 14.66 75.608 14.168 74.408 13.832C73.208 13.496 72.044 13.328 70.916 13.328C69.068 13.328 67.688 13.64 66.776 14.264C65.888 14.888 65.444 15.716 65.444 16.748C65.444 17.468 65.696 18.056 66.2 18.512C66.728 18.968 67.388 19.328 68.18 19.592C68.972 19.856 70.052 20.156 71.42 20.492C73.292 20.924 74.828 21.38 76.028 21.86C77.228 22.316 78.248 23.024 79.088 23.984C79.952 24.944 80.384 26.24 80.384 27.872C80.384 29.264 80 30.524 79.232 31.652C78.488 32.78 77.348 33.68 75.812 34.352C74.276 35.024 72.404 35.36 70.196 35.36ZM96.1486 33.956C95.6206 34.388 94.9726 34.712 94.2046 34.928C93.4606 35.144 92.6686 35.252 91.8286 35.252C89.7166 35.252 88.0846 34.7 86.9326 33.596C85.7806 32.492 85.2046 30.884 85.2046 28.772V19.52H82.0366V15.92H85.2046V11.528H89.7046V15.92H94.8526V19.52H89.7046V28.664C89.7046 29.6 89.9326 30.32 90.3886 30.824C90.8446 31.304 91.5046 31.544 92.3686 31.544C93.3766 31.544 94.2166 31.28 94.8886 30.752L96.1486 33.956ZM107.858 35.252C105.914 35.252 104.162 34.832 102.602 33.992C101.042 33.152 99.8176 31.988 98.9296 30.5C98.0656 28.988 97.6336 27.284 97.6336 25.388C97.6336 23.492 98.0656 21.8 98.9296 20.312C99.8176 18.824 101.042 17.66 102.602 16.82C104.162 15.98 105.914 15.56 107.858 15.56C109.826 15.56 111.59 15.98 113.15 16.82C114.71 17.66 115.922 18.824 116.786 20.312C117.674 21.8 118.118 23.492 118.118 25.388C118.118 27.284 117.674 28.988 116.786 30.5C115.922 31.988 114.71 33.152 113.15 33.992C111.59 34.832 109.826 35.252 107.858 35.252ZM107.858 31.4C109.514 31.4 110.882 30.848 111.962 29.744C113.042 28.64 113.582 27.188 113.582 25.388C113.582 23.588 113.042 22.136 111.962 21.032C110.882 19.928 109.514 19.376 107.858 19.376C106.202 19.376 104.834 19.928 103.754 21.032C102.698 22.136 102.17 23.588 102.17 25.388C102.17 27.188 102.698 28.64 103.754 29.744C104.834 30.848 106.202 31.4 107.858 31.4ZM126.705 18.584C128.001 16.568 130.281 15.56 133.545 15.56V19.844C133.161 19.772 132.813 19.736 132.501 19.736C130.749 19.736 129.381 20.252 128.397 21.284C127.413 22.292 126.921 23.756 126.921 25.676V35H122.421V15.776H126.705V18.584ZM155.258 25.496C155.258 25.808 155.234 26.252 155.186 26.828H140.102C140.366 28.244 141.05 29.372 142.154 30.212C143.282 31.028 144.674 31.436 146.33 31.436C148.442 31.436 150.182 30.74 151.55 29.348L153.962 32.12C153.098 33.152 152.006 33.932 150.686 34.46C149.366 34.988 147.878 35.252 146.222 35.252C144.11 35.252 142.25 34.832 140.642 33.992C139.034 33.152 137.786 31.988 136.898 30.5C136.034 28.988 135.602 27.284 135.602 25.388C135.602 23.516 136.022 21.836 136.862 20.348C137.726 18.836 138.914 17.66 140.426 16.82C141.938 15.98 143.642 15.56 145.538 15.56C147.41 15.56 149.078 15.98 150.542 16.82C152.03 17.636 153.182 18.8 153.998 20.312C154.838 21.8 155.258 23.528 155.258 25.496ZM145.538 19.16C144.098 19.16 142.874 19.592 141.866 20.456C140.882 21.296 140.282 22.424 140.066 23.84H150.974C150.782 22.448 150.194 21.32 149.21 20.456C148.226 19.592 147.002 19.16 145.538 19.16Z" fill="#5F5F5F"/>
</svg>
